
<svg width="184px" height="183px" viewBox="0 0 184 183" version="1.1" xmlns="http://www.w3.org/2000/svg" xmlns:xlink="http://www.w3.org/1999/xlink">
    <!-- Generator: Sketch 46.2 (44496) - http://www.bohemiancoding.com/sketch -->
    <desc>Created with Sketch.</desc>
    <defs></defs>
    <g id="Page-1" stroke="none" stroke-width="1" fill="none" fill-rule="evenodd">
        <g id="Brand-Bible" transform="translate(-84.000000, 0.000000)">
            <g id="Group-92">
                <g id="Logomark" transform="translate(84.000000, 0.000000)">
                    <path d="M0.0293,95.7886 C1.3843,108.0056 3.5743,120.3586 6.5023,132.8416 C6.5603,133.2326 6.9573,133.5966 7.3843,133.6546 C13.5193,134.4806 19.6563,135.2166 25.7913,135.8636 C26.2203,135.9086 26.5313,135.6096 26.4883,135.1966 C25.4083,128.5346 24.4783,121.8896 23.7053,115.2616 C23.6813,114.8506 24.0193,114.5356 24.4593,114.5586 C38.3533,115.2956 52.2463,115.8056 66.1403,116.0886 C66.5803,116.0966 66.9453,116.4616 66.9533,116.9016 C67.2463,131.1726 67.7833,145.4436 68.5643,159.7146 C68.5883,160.1546 68.2733,160.4926 67.8633,160.4666 C61.2523,159.6876 54.6213,158.7496 47.9743,157.6626 C47.5623,157.6176 47.2653,157.9276 47.3123,158.3576 C47.9353,164.1216 48.6383,169.8866 49.4223,175.6516 C49.4803,176.0806 49.8453,176.4756 50.2363,176.5336 C63.0563,179.5046 75.7463,181.7026 88.2933,183.0256 C88.6793,183.0316 88.9883,182.6736 88.9843,182.2286 C88.7713,160.3926 88.6363,138.5576 88.5763,116.7206 C88.5583,109.9656 88.5473,103.2106 88.5453,96.4556 C88.5453,96.0106 88.1813,95.6496 87.7383,95.6496 C58.7673,95.6336 29.7953,95.4496 0.8243,95.0986 C0.3793,95.0926 0.0233,95.4016 0.0293,95.7886" id="Fill-41" fill="#9EE8E3"></path>
                    <path d="M62.0449,45.1973 C62.2479,40.8773 62.4769,36.5573 62.7339,32.2373 C62.7599,31.7993 62.4409,31.4653 62.0249,31.4923 C57.4569,32.1633 52.8809,32.8943 48.2929,33.6833 C47.8729,33.7223 47.5019,34.1023 47.4629,34.5313 C47.1409,38.0853 46.8479,41.6393 46.5859,45.1933 C46.5529,45.6223 46.1819,45.9963 45.7519,46.0273 C41.4649,46.3433 37.1759,46.7023 32.8889,47.1063 C32.4609,47.1463 32.0799,47.5183 32.0389,47.9363 C31.2309,52.5143 30.4809,57.0813 29.7929,61.6373 C29.7639,62.0543 30.0979,62.3703 30.5329,62.3433 C35.6039,62.0273 40.6739,61.7503 45.7459,61.5113 C50.7109,61.2793 55.6759,61.0833 60.6409,60.9253 C61.0779,60.9113 61.4449,60.5453 61.4569,60.1073 C61.6169,55.1373 61.8129,50.1673 62.0449,45.1973" id="Fill-42" fill="#EF6D6D"></path>
                    <path d="M138.2402,122.165 C142.5562,121.962 146.8712,121.731 151.1872,121.472 C151.6252,121.446 151.9592,121.764 151.9312,122.183 C151.2562,126.76 150.5192,131.347 149.7262,135.944 C149.6852,136.364 149.3062,136.737 148.8792,136.776 C145.3302,137.097 141.7812,137.388 138.2342,137.649 C137.8042,137.681 137.4312,138.054 137.4002,138.483 C137.1092,142.408 136.7832,146.332 136.4222,150.256 C136.3832,150.686 136.0102,151.065 135.5922,151.105 C131.0132,151.902 126.4452,152.641 121.8882,153.316 C121.4722,153.344 121.1562,153.01 121.1812,152.572 C121.4692,147.875 121.7202,143.177 121.9392,138.479 C122.1722,133.51 122.3692,128.54 122.5272,123.57 C122.5412,123.132 122.9062,122.766 123.3452,122.752 C128.3102,122.594 133.2752,122.398 138.2402,122.165" id="Fill-43" fill="#73ABAB"></path>
                    <path d="M183.9551,95.7886 C182.6011,108.0056 180.4121,120.3586 177.4821,132.8416 C177.4241,133.2326 177.0291,133.5966 176.6011,133.6546 C170.4651,134.4806 164.3301,135.2166 158.1931,135.8636 C157.7641,135.9086 157.4531,135.6096 157.4981,135.1966 C158.5761,128.5346 159.5061,121.8896 160.2791,115.2616 C160.3031,114.8506 159.9671,114.5356 159.5251,114.5586 C145.6331,115.2956 131.7381,115.8056 117.8441,116.0886 C117.4041,116.0966 117.0411,116.4616 117.0311,116.9016 C116.7381,131.1726 116.2031,145.4436 115.4221,159.7146 C115.3981,160.1546 115.7111,160.4926 116.1211,160.4666 C122.7341,159.6876 129.3631,158.7496 136.0101,157.6626 C136.4221,157.6176 136.7191,157.9276 136.6741,158.3576 C136.0511,164.1216 135.3481,169.8866 134.5641,175.6516 C134.5061,176.0806 134.1391,176.4756 133.7501,176.5336 C120.9281,179.5046 108.2401,181.7026 95.6931,183.0256 C95.3071,183.0316 94.9961,182.6736 95.0001,182.2286 C95.2131,160.3926 95.3501,138.5576 95.4081,116.7206 C95.4261,109.9656 95.4371,103.2106 95.4411,96.4556 C95.4411,96.0106 95.8031,95.6496 96.2461,95.6496 C125.2191,95.6336 154.1891,95.4496 183.1621,95.0986 C183.6051,95.0926 183.9611,95.4016 183.9551,95.7886" id="Fill-44" fill="#9EE8E3"></path>
                    <path d="M121.9395,45.1973 C121.7385,40.8773 121.5075,36.5573 121.2505,32.2373 C121.2245,31.7993 121.5435,31.4653 121.9605,31.4923 C126.5275,32.1633 131.1055,32.8943 135.6935,33.6833 C136.1115,33.7223 136.4845,34.1023 136.5235,34.5313 C136.8455,38.0853 137.1365,41.6393 137.4005,45.1933 C137.4315,45.6223 137.8045,45.9963 138.2345,46.0273 C142.1525,46.3163 146.0705,46.6403 149.9885,47.0023 C150.4165,47.0423 150.7965,47.4143 150.8355,47.8333 C151.6365,52.4213 152.3805,56.9983 153.0625,61.5653 C153.0895,61.9833 152.7575,62.3003 152.3205,62.2733 C147.6275,61.9863 142.9335,61.7323 138.2405,61.5113 C133.2755,61.2793 128.3105,61.0833 123.3455,60.9253 C122.9065,60.9113 122.5415,60.5453 122.5275,60.1073 C122.3675,55.1373 122.1715,50.1673 121.9395,45.1973" id="Fill-45" fill="#73ABAB"></path>
                    <path d="M95.6934,0.6514 C107.9064,1.9694 120.2574,4.1164 132.7384,6.9974 C133.1294,7.0534 133.4924,7.4474 133.5504,7.8774 C134.3634,14.0224 135.0894,20.1674 135.7244,26.3134 C135.7694,26.7424 135.4704,27.0554 135.0564,27.0124 C128.3944,25.9534 121.7484,25.0424 115.1214,24.2854 C114.7094,24.2614 114.3944,24.6004 114.4164,25.0414 C115.1294,38.9454 115.6214,52.8494 115.8924,66.7534 C115.9024,67.1934 116.2654,67.5574 116.7054,67.5664 C131.3594,67.8504 146.0114,68.3884 160.6644,69.1794 C161.1054,69.2034 161.4414,68.8894 161.4184,68.4784 C160.6364,61.8684 159.6994,55.2394 158.6074,48.5944 C158.5644,48.1824 158.8734,47.8854 159.3024,47.9314 C165.0684,48.5484 170.8344,49.2464 176.6014,50.0224 C177.0294,50.0804 177.4234,50.4444 177.4824,50.8354 C180.4614,63.6554 182.6584,76.3424 183.9704,88.8884 C183.9744,89.2754 183.6174,89.5854 183.1734,89.5814 C160.9534,89.3834 138.7324,89.2584 116.5134,89.2054 C109.7574,89.1894 103.0024,89.1794 96.2484,89.1764 C95.8024,89.1764 95.4434,88.8164 95.4414,88.3714 C95.4294,59.3974 95.2834,30.4224 95.0004,1.4474 C94.9964,1.0034 95.3064,0.6464 95.6934,0.6514" id="Fill-46" fill="#9EE8E3"></path>
                </g>
            </g>
        </g>
    </g>
</svg>